# AST/ASF file generated using VICON BodyLanguage
# -----------------------------------------------
:version 1.10
:name VICON
:units
  mass 1.0
  length 0.45
  angle deg
:documentation
   .ast/.asf automatically generated from VICON data using
   VICON BodyBuilder and BodyLanguage model FoxedUp or BRILLIANT.MOD
:root
   order TX TY TZ RX RY RZ
   axis XYZ
   position 0 0 0  
   orientation 0 0 0 
:bonedata
  begin
     id 1 
     name lhipjoint
     direction 0.623529 -0.717805 0.309788 
     length 2.23224 
     axis 0 0 0  XYZ
  end
  begin
     id 2 
     name lfemur
     direction 0.34202 -0.939693 0  
     length 7.11402  
     axis 0 0 20  XYZ
    dof rx ry rz
    limits (-160.0 20.0)
           (-70.0 70.0)
           (-60.0 70.0)
  end
  begin
     id 3 
     name ltibia
     direction 0.34202 -0.939693 0   
     length 6.78496   
     axis 0 0 20   XYZ
    dof rx
    limits (-10.0 170.0)
  end
  begin
     id 4 
     name lfoot
     direction 0.125078 -0.343648 0.930732   
     length 1.84054   
     axis -90 7.62852e-016 20   XYZ
    dof rx rz
    limits (-45.0 90.0)
           (-70.0 20.0)
  end
  begin
     id 5 
     name ltoes
     direction 1.53565e-011 -4.21893e-011 1   
     length 0.916474   
     axis -90 7.62852e-016 20   XYZ
    dof rx
    limits (-90.0 20.0)
  end
  begin
     id 6 
     name rhipjoint
     direction -0.564688 -0.757748 0.327026   
     length 2.11457  
     axis 0 0 0  XYZ 
  end
  begin
     id 7 
     name rfemur
     direction -0.34202 -0.939693 0   
     length 7.14609   
     axis 0 0 -20   XYZ
    dof rx ry rz
    limits (-160.0 20.0)
           (-70.0 70.0)
           (-70.0 60.0)
  end
  begin
     id 8 
     name rtibia
     direction -0.34202 -0.939693 0   
     length 6.78101   
     axis 0 0 -20   XYZ
    dof rx
    limits (-10.0 170.0)
 end
 begin
     id 9 
     name rfoot
     direction -0.0992671 -0.272734 0.956955   
     length 1.96168  
     axis -90 -7.62852e-016 -20   XYZ
    dof rx rz
    limits (-45.0 90.0)
           (-20.0 70.0)
  end
  begin
     id 10 
     name rtoes
     direction -1.5356e-011 -4.21891e-011 1   
     length 0.982933   
     axis -90 -7.62852e-016 -20   XYZ
    dof rx
    limits (-90.0 20.0)
  end
  begin
     id 11 
     name lowerback
     direction -0.00596953 0.998668 0.0512524   
     length 1.87557   
     axis 0 0 0   XYZ
    dof rx ry rz
    limits (-20.0 45.0)
           (-30.0 30.0)
           (-30.0 30.0)
  end
  begin
     id 12 
     name upperback
     direction 0.00584879 0.999652 0.0257308   
     length 1.87883   
     axis 0 0 0   XYZ
    dof rx ry rz
    limits (-20.0 45.0)
           (-30.0 30.0)
           (-30.0 30.0)
  end
  begin
     id 13 
     name thorax
     direction 0.010104 0.999947 0.00178881   
     length 1.87779   
     axis 0 0 0   XYZ
    dof rx ry rz
    limits (-20.0 45.0)
           (-30.0 30.0)
           (-30.0 30.0)
  end
  begin
     id 14 
     name lowerneck
     direction 0.0120771 0.995934 -0.0892773   
     length 1.40897   
     axis 0 0 0   XYZ
    dof rx ry rz
    limits (-20.0 45.0)
           (-30.0 30.0)
           (-30.0 30.0)
  end
  begin
     id 15 
     name upperneck
     direction -0.030568 0.999465 -0.0116366   
     length 1.38661   
     axis 0 0 0   XYZ
    dof rx ry rz
    limits (-20.0 45.0)
           (-30.0 30.0)
           (-30.0 30.0)
  end
  begin
     id 16
     name head
     direction -0.0170715 0.999854 -0.00104426  
     length 1.47052  
     axis 0 0 0   XYZ
    dof rx ry rz
    limits (-20.0 45.0)
           (-30.0 30.0)
           (-30.0 30.0)
  end
  begin
     id 17 
     name lclavicle
     direction 0.977763 0.206143 0.038532  
     length 3.02424  
     axis 0 0 0   XYZ
    dof ry rz
    limits (-20.0 10.0)
           (0.0 20.0)
  end
  begin
     id 18 
     name lhumerus
     direction 1 -4.48965e-011 -2.62654e-027   
     length 4.68382   
     axis 180 -30 -90   XYZ
    dof rx ry rz
    limits (-60.0 90.0)
           (-90.0 90.0)
           (-90.0 90.0)
  end
  begin
     id 19
     name lradius
     direction 1 -4.48973e-011 -1.54954e-027   
     length 2.98124   
     axis 180 -30 -90   XYZ
    dof rx
    limits (-10.0 170.0)
  end
  begin
     id 20
     name lwrist
     direction 1 -4.48959e-011 7.20928e-028   
     length 1.49062   
     axis -5.52449e-016 90 90   XYZ
    dof ry
    limits (-180.0 0.0)
 end
  begin
     id 21 
     name lhand
     direction 1 -4.48971e-011 1.44186e-027   
     length 0.707595   
     axis -9.20027e-016 90 90   XYZ
    dof rx rz
    limits (-90.0 90.0)
           (-45.0 45.0)
  end
  begin
     id 22 
     name lfingers
     direction 1 -4.48985e-011 2.88371e-027   
     length 0.570481   
     axis -1.84005e-015 90 90   XYZ
    dof rx
    limits (0.0 90.0)
  end
  begin
     id 23
     name lthumb
     direction 0.707107 -6.34929e-011 0.707107   
     length 0.819101   
     axis -90 45 2.85299e-015   XYZ
    dof rx rz
    limits (-45.0 45.0)
           (-45.0 45.0)
  end
  begin
     id 24 
     name rclavicle
     direction -0.958661 0.284411 -0.00895327   
     length 3.11921  
     axis 0 0 0   XYZ 
    dof ry rz
    limits (-10.0 20.0)
           (-20.0 0.0)
  end
  begin
     id 25 
     name rhumerus
     direction -1 -4.48963e-011 -4.22193e-027  
     length 4.75876   
     axis 180 30 90   XYZ
    dof rx ry rz
    limits (-90.0 60.0)
           (-90.0 90.0)
           (-90.0 90.0)
  end
  begin
     id 26 
     name rradius
     direction -1 -4.48968e-011 -1.07616e-027   
     length 2.93293   
     axis 180 30 90   XYZ
    dof rx
    limits (-10.0 170.0)
  end
  begin
     id 27 
     name rwrist
     direction -1 -4.48965e-011 7.20928e-028   
     length 1.46647   
     axis -5.52449e-016 -90 -90   XYZ
    dof ry
    limits (-180.0 0.0)
  end
  begin
     id 28
     name rhand
     direction -1 -4.48971e-011 1.44186e-027   
     length 0.831748   
     axis -9.20027e-016 -90 -90   XYZ
    dof rx rz
    limits (-90.0 90.0)
           (-45.0 45.0)
  end
  begin
     id 29
     name rfingers
     direction -1 -4.48961e-011 2.88371e-027   
     length 0.670577   
     axis -1.84005e-015 -90 -90   XYZ
    dof rx
    limits (0.0 90.0)
  end
  begin
     id 30
     name rthumb
     direction -0.707107 -6.34929e-011 0.707107   
     length 0.962818   
     axis -90 -45 -2.85299e-015   XYZ
    dof rx rz
    limits (-45.0 45.0)
           (-45.0 45.0)
  end
:hierarchy
  begin
    root lhipjoint rhipjoint lowerback
    lhipjoint lfemur
    lfemur ltibia
    ltibia lfoot
    lfoot ltoes
    rhipjoint rfemur
    rfemur rtibia
    rtibia rfoot
    rfoot rtoes
    lowerback upperback
    upperback thorax
    thorax lowerneck lclavicle rclavicle
    lowerneck upperneck
    upperneck head
    lclavicle lhumerus
    lhumerus lradius
    lradius lwrist
    lwrist lhand lthumb
    lhand lfingers
    rclavicle rhumerus
    rhumerus rradius
    rradius rwrist
    rwrist rhand rthumb
    rhand rfingers
  end

#!OML:ASF E:\id_vita\Project 1\Capture day 1\Session 1\Female.ASF
:FULLY-SPECIFIED
:DEGREES
353
root -24.3489 16.375 2.09542 -167.193 10.1273 -176.653
lowerback -14.5315 -1.1954 -2.44621
upperback -5.79653 -0.589532 3.44059
thorax 2.08794 0.101234 4.92159
lowerneck 11.6629 6.31273 0.373952
upperneck 5.00592 9.2073 8.79313
head -0.815374 4.81114 2.31586
rclavicle -2.53947e-014 -1.74931e-014
rhumerus 67.5058 -10.0019 -54.7675
rradius 129.794
rwrist -10.6314
rhand -15.6689 22.8031
rfingers 7.12502
rthumb 10.5195 -6.9137
lclavicle -2.53947e-014 -1.74931e-014
lhumerus -40.3012 34.6053 71.761
lradius 12.1504
lwrist -67.2582
lhand 5.59421 21.9253
lfingers 7.12502
lthumb 30.9366 49.3389
rfemur -18.8944 5.58286 19.1686
rtibia 23.156
rfoot -10.7617 -10.3066
rtoes -24.9912
lfemur -18.8353 -14.1371 -17.0519
ltibia 28.8844
lfoot -22.4826 15.0567
ltoes 4.69824
354
root -24.3487 16.3746 2.09484 -167.284 10.08 -176.68
lowerback -14.5073 -1.18729 -2.46183
upperback -5.74304 -0.587159 3.41306
thorax 2.13102 0.0960319 4.90166
lowerneck 11.748 6.31213 0.535542
upperneck 4.83392 9.21863 8.51062
head -0.860172 4.80742 2.18989
rclavicle 2.6339e-015 -5.40694e-014
rhumerus 67.517 -9.99176 -54.6505
rradius 129.903
rwrist -10.7157
rhand -15.9431 22.655
rfingers 7.12502
rthumb 10.2551 -7.07496
lclavicle 2.6339e-015 -5.40694e-014
lhumerus -40.4634 35.3132 71.1619
lradius 12.0231
lwrist -68.2653
lhand 5.69971 21.5446
lfingers 7.12502
lthumb 31.0371 48.9389
rfemur -18.7802 5.63668 19.1364
rtibia 23.1599
rfoot -10.805 -10.3891
rtoes -24.9841
lfemur -18.7323 -14.1105 -17.1056
ltibia 28.8788
lfoot -22.5096 14.977
ltoes 4.56531
355
root -24.3476 16.3756 2.09402 -167.377 10.0547 -176.635
lowerback -14.3979 -1.13649 -2.41419
upperback -5.75355 -0.528482 3.37378
thorax 2.05477 0.124884 4.84097
lowerneck 12.0065 6.35617 0.444348
upperneck 4.53081 9.29362 8.68997
head -1.02166 4.82345 2.24508
rclavicle -8.99501e-015 -1.78906e-014
rhumerus 67.4053 -10.0339 -54.5664
rradius 129.969
rwrist -10.7832
rhand -16.1672 22.6664
rfingers 7.12502
rthumb 10.0389 -7.07415
lclavicle -8.99501e-015 -1.78906e-014
lhumerus -40.4846 35.6349 70.7741
lradius 11.7926
lwrist -68.8817
lhand 5.65928 21.5396
lfingers 7.12502
lthumb 30.9986 48.9414
rfemur -18.6641 5.65056 19.2105
rtibia 23.1677
rfoot -10.8794 -10.4265
rtoes -25.2274
lfemur -18.6063 -14.1483 -17.0712
ltibia 28.8683
lfoot -22.5409 14.9344
ltoes 4.93079
356
root -24.3487 16.3771 2.09391 -167.363 10.0465 -176.628
lowerback -14.4036 -1.14625 -2.40121
upperback -5.71827 -0.548989 3.38309
thorax 2.09696 0.111015 4.84038
lowerneck 11.8317 6.33182 0.376472
upperneck 4.56043 9.23029 8.59369
head -0.977547 4.79176 2.23527
rclavicle -1.26228e-014 2.50469e-014
rhumerus 67.5878 -10.0263 -54.5493
rradius 129.993
rwrist -10.9589
rhand -16.3879 22.7076
rfingers 7.12502
rthumb 9.82594 -7.04315
lclavicle -1.26228e-014 2.50469e-014
lhumerus -40.7267 36.4741 70.1789
lradius 11.631
lwrist -69.6675
lhand 5.34241 21.6446
lfingers 7.12502
lthumb 30.6965 49.1034
rfemur -18.6778 5.65635 19.2198
rtibia 23.1728
rfoot -10.8182 -10.4305
rtoes -25.086
lfemur -18.625 -14.1223 -17.0652
ltibia 28.8611
lfoot -22.5444 14.9155
ltoes 5.03438
357
root -24.3494 16.3768 2.09438 -167.315 10.0237 -176.617
lowerback -14.4523 -1.13363 -2.34443
upperback -5.75798 -0.530658 3.32759
thorax 2.07864 0.12274 4.75191
lowerneck 11.8066 6.23664 0.543816
upperneck 4.70728 9.11672 8.37893
head -0.898916 4.74874 2.14698
rclavicle 1.76421e-014 -1.47101e-014
rhumerus 67.5754 -10.0005 -54.4817
rradius 130.088
rwrist -11.1562
rhand -16.6804 22.5948
rfingers 7.12502
rthumb 9.54376 -7.16904
lclavicle 1.76421e-014 -1.47101e-014
lhumerus -41.1676 37.0269 69.4945
lradius 11.5799
lwrist -70.4205
lhand 5.08708 21.5188
lfingers 7.12502
lthumb 30.453 49.0231
rfemur -18.7116 5.73231 19.2073
rtibia 23.1539
rfoot -10.8331 -10.4279
rtoes -25.0556
lfemur -18.6953 -14.0584 -17.0469
ltibia 28.8767
lfoot -22.5674 14.8759
ltoes 4.72468
358
root -24.3501 16.3759 2.09537 -167.229 9.98941 -176.608
lowerback -14.4256 -1.14302 -2.26692
upperback -5.81221 -0.545266 3.28398
thorax 2.00785 0.119117 4.65824
lowerneck 11.5363 6.30812 0.342349
upperneck 4.98139 9.17858 8.62195
head -0.792152 4.79459 2.27091
rclavicle 1.89839e-014 -9.14409e-015
rhumerus 67.6013 -9.87575 -54.4542
rradius 130.132
rwrist -11.2524
rhand -17.0431 22.5289
rfingers 7.12502
rthumb 9.19374 -7.25064
lclavicle 1.89839e-014 -9.14409e-015
lhumerus -41.2613 37.0764 69.3237
lradius 11.5752
lwrist -70.5437
lhand 5.04778 21.6595
lfingers 7.12502
lthumb 30.4155 49.1707
rfemur -18.7857 5.73367 19.2023
rtibia 23.1143
rfoot -10.8948 -10.399
rtoes -25.1841
lfemur -18.8197 -14.1148 -16.9967
ltibia 28.9089
lfoot -22.5888 14.9042
ltoes 4.6271
359
root -24.3503 16.3764 2.09597 -167.16 9.97397 -176.604
lowerback -14.3897 -1.08072 -2.15061
upperback -5.94081 -0.456374 3.1808
thorax 1.84353 0.173251 4.49523
lowerneck 11.8745 6.24396 0.398437
upperneck 4.70171 9.12397 8.57139
head -0.931945 4.7506 2.23132
rclavicle 1.81888e-014 -1.03368e-014
rhumerus 67.3586 -9.8541 -54.3716
rradius 130.061
rwrist -11.2868
rhand -17.4348 22.6355
rfingers 7.12502
rthumb 8.81578 -7.16039
lclavicle 1.81888e-014 -1.03368e-014
lhumerus -41.2723 36.5566 69.4438
lradius 11.5956
lwrist -70.1645
lhand 5.00874 21.8587
lfingers 7.12502
lthumb 30.3783 49.3768
rfemur -18.8469 5.68217 19.2065
rtibia 23.0697
rfoot -10.8125 -10.3814
rtoes -25.0588
lfemur -18.9246 -14.1336 -16.9624
ltibia 28.9396
lfoot -22.6293 14.9292
ltoes 4.7038
360
root -24.3501 16.3754 2.09518 -167.185 9.9505 -176.595
lowerback -14.269 -0.99442 -2.08586
upperback -6.03405 -0.338333 3.09182
thorax 1.66942 0.23862 4.38066
lowerneck 11.88 6.13715 0.435009
upperneck 4.8129 8.99844 8.65673
head -0.894871 4.69884 2.2615
rclavicle 3.97569e-014 -3.1408e-014
rhumerus 67.0064 -9.9314 -54.285
rradius 130.06
rwrist -11.284
rhand -17.8401 22.8435
rfingers 7.12502
rthumb 8.42462 -6.9685
lclavicle 3.97569e-014 -3.1408e-014
lhumerus -41.3782 36.3365 69.3524
lradius 11.59
lwrist -70.1993
lhand 5.06356 21.7335
lfingers 7.12502
lthumb 30.4306 49.2419
rfemur -18.7945 5.66959 19.213
rtibia 23.041
rfoot -10.7411 -10.3925
rtoes -24.8043
lfemur -18.9028 -14.0971 -16.963
ltibia 28.9574
lfoot -22.6287 14.8514
ltoes 4.82928
361
root -24.3517 16.3738 2.09478 -167.22 9.92319 -176.605
lowerback -14.2919 -1.10357 -2.06486
upperback -5.97935 -0.495181 3.1666
thorax 1.75363 0.155887 4.42394
lowerneck 11.6892 6.28049 0.0931966
upperneck 4.99587 9.12916 8.80974
head -0.835864 4.76661 2.37252
rclavicle 5.21064e-014 -1.94809e-014
rhumerus 67.2184 -9.62532 -54.3951
rradius 130.128
rwrist -11.2823
rhand -18.1533 22.8735
rfingers 7.12502
rthumb 8.1224 -6.95041
lclavicle 5.21064e-014 -1.94809e-014
lhumerus -41.6764 37.0198 68.9157
lradius 11.6091
lwrist -70.6594
lhand 5.22295 21.6961
lfingers 7.12502
lthumb 30.5826 49.1762
rfemur -18.7356 5.79343 19.1735
rtibia 23.0284
rfoot -10.7699 -10.4774
rtoes -24.791
lfemur -18.8694 -14.1324 -16.9845
ltibia 28.9668
lfoot -22.5493 14.8399
ltoes 4.51641
362
root -24.353 16.3745 2.09537 -167.213 9.90898 -176.612
lowerback -14.1867 -1.04572 -2.09112
upperback -6.03606 -0.4096 3.10127
thorax 1.6299 0.202695 4.38183
lowerneck 11.583 6.15156 0.304581
upperneck 5.06852 8.98347 8.77758
head -0.775118 4.70598 2.33843
rclavicle -8.74653e-015 1.07344e-014
rhumerus 67.1086 -9.66147 -54.3414
rradius 130.188
rwrist -11.3526
rhand -18.3951 22.8019
rfingers 7.12502
rthumb 7.889 -7.03092
lclavicle -8.74653e-015 1.07344e-014
lhumerus -41.6765 36.8764 68.8788
lradius 11.5943
lwrist -70.7445
lhand 5.32091 21.7805
lfingers 7.12502
lthumb 30.676 49.2432
rfemur -18.7433 5.81201 19.1652
rtibia 23.0164
rfoot -10.8096 -10.4879
rtoes -24.9662
lfemur -18.8857 -14.2268 -16.9806
ltibia 28.9722
lfoot -22.5077 14.9201
ltoes 4.12369
363
root -24.3531 16.376 2.09571 -167.195 9.90268 -176.613
lowerback -14.3315 -1.05902 -2.07509
upperback -5.95575 -0.437557 3.07838
thorax 1.79405 0.180362 4.34576
lowerneck 11.5368 6.15194 0.289679
upperneck 4.98025 8.97761 8.78672
head -0.797092 4.69677 2.34409
rclavicle -3.15571e-015 -1.49089e-014
rhumerus 67.3299 -9.54821 -54.4781
rradius 130.32
rwrist -11.3895
rhand -18.6091 22.7565
rfingers 7.12502
rthumb 7.68246 -7.08399
lclavicle -3.15571e-015 -1.49089e-014
lhumerus -41.5608 36.9371 68.9034
lradius 11.5835
lwrist -70.612
lhand 5.29194 21.8754
lfingers 7.12502
lthumb 30.6484 49.3433
rfemur -18.7811 5.58482 19.2041
rtibia 23.0142
rfoot -10.8533 -10.3504
rtoes -24.7211
lfemur -18.9066 -14.1823 -16.9815
ltibia 28.9696
lfoot -22.5155 14.8455
ltoes 4.14094
